<svg width="565" height="185" viewBox="0 0 565 185" fill="none" xmlns="http://www.w3.org/2000/svg">
<g clip-path="url(#clip0_468_11908)">
<path d="M47.0179 12.8887C51.6858 12.8887 55.9417 13.446 59.7892 14.5607C63.6332 15.6754 66.9395 17.3265 69.7081 19.5071C72.4732 21.6912 74.6344 24.4083 76.1915 27.6583C77.7486 30.9118 78.5237 34.6738 78.5237 38.9445C78.5237 43.2152 77.616 47.1653 75.8005 51.0667C73.985 54.9681 71.3036 57.9883 67.7599 60.1236V60.4022C70.4378 61.2383 72.6862 62.4714 74.5017 64.0947C76.3172 65.7214 77.808 67.5572 78.9741 69.5984C80.1402 71.6432 80.9851 73.8029 81.5018 76.0776C82.022 78.3557 82.2804 80.606 82.2804 82.8354C82.2804 88.3182 81.3063 92.9372 79.3616 96.6993C77.417 100.461 74.8229 103.506 71.5829 105.826C68.3395 108.149 64.5828 109.846 60.3024 110.912C56.022 111.981 51.5915 112.514 47.0109 112.514H20.0508C15.2956 112.514 12.918 109.961 12.918 104.85V20.5521C12.918 15.4455 15.2956 12.8887 20.0508 12.8887H47.0214H47.0179ZM35.6082 51.4847H47.2762C50.1287 51.4847 52.2025 50.5582 53.5013 48.698C54.7966 46.8414 55.446 44.706 55.446 42.2886C55.446 39.8711 54.7756 37.9691 53.435 36.2971C52.0943 34.6251 49.9122 33.7891 46.8887 33.7891H35.6082V51.4847ZM35.6082 91.6135H49.2209C52.5063 91.6135 54.9676 90.5685 56.6121 88.4785C58.253 86.3884 59.077 83.95 59.077 81.1633C59.077 78.3766 58.2774 75.987 56.6784 73.9875C55.0794 71.9915 52.6354 70.9918 49.3536 70.9918H35.6082V91.6135ZM47.0179 6.5433e-05H20.0508C12.4466 6.5433e-05 7.79616 3.28143 5.23352 6.0368C2.84544 8.60407 0 13.2022 0 20.5521V104.85C0 112.2 2.84544 116.802 5.23352 119.369C7.79616 122.121 12.4466 125.403 20.0473 125.403H47.0179C52.6354 125.403 58.1657 124.734 63.4446 123.414C69.2856 121.957 74.5645 119.561 79.1242 116.293C84.0191 112.789 87.9678 108.181 90.8481 102.607C93.739 97.0163 95.2018 90.3665 95.2018 82.8354C95.2018 79.6585 94.8318 76.4259 94.1021 73.2212C93.3026 69.7204 91.9933 66.3554 90.2022 63.2203C89.1863 61.4403 88.0097 59.7509 86.683 58.1729C86.9728 57.626 87.2521 57.0651 87.5174 56.4939C90.1219 50.8995 91.4417 44.9952 91.4417 38.9445C91.4417 32.8938 90.2337 27.0905 87.8491 22.1057C85.4435 17.0792 82.0395 12.8051 77.7242 9.39828C73.6428 6.1831 68.8248 3.75517 63.3923 2.18068C58.3892 0.73158 52.8833 -0.00341797 47.0179 -0.00341797V6.5433e-05Z" fill="white"/>
<path d="M210.518 39.084C213.891 39.084 217.043 39.5507 219.983 40.4773C222.919 41.4074 225.45 42.9157 227.57 45.0057C229.685 47.0958 231.372 49.8616 232.625 53.2962C233.879 56.7344 234.507 60.9597 234.507 65.9758V104.851C234.507 109.961 232.129 112.514 227.374 112.514H219.204C214.449 112.514 212.075 109.961 212.075 104.851V70.4346C212.075 67.0905 211.468 64.6765 210.26 63.1891C209.048 61.7052 207.191 60.9597 204.684 60.9597C202.177 60.9597 200.016 61.4718 198.201 62.4924C196.385 63.5165 194.873 64.9099 193.662 66.6725C192.45 68.4386 191.563 70.4834 191.005 72.8033C190.443 75.1267 190.163 77.5407 190.163 80.0488V104.851C190.163 109.961 187.786 112.514 183.031 112.514H174.861C170.106 112.514 167.728 109.961 167.728 104.851V48.4195C167.728 43.3128 170.106 40.756 174.861 40.756H182.123C186.791 40.756 189.123 43.3128 189.123 48.4195V49.6735C189.123 49.8616 189.102 50.0462 189.057 50.2309C189.011 50.419 188.99 50.6036 188.99 50.7882V51.4849H189.249C190.027 50.0915 191.019 48.6529 192.23 47.1655C193.438 45.6815 194.908 44.3578 196.64 43.1944C198.368 42.0344 200.379 41.0591 202.669 40.2683C204.96 39.4811 207.575 39.084 210.514 39.084M210.514 26.1954C206.154 26.1954 202.1 26.8294 198.459 28.0834C196.413 28.7905 194.486 29.6196 192.688 30.5636C190.083 29.0343 186.62 27.8674 182.119 27.8674H174.857C167.253 27.8674 162.603 31.1488 160.04 33.9041C157.652 36.4714 154.807 41.0695 154.807 48.4195V104.851C154.807 112.201 157.652 116.802 160.04 119.369C162.603 122.121 167.253 125.403 174.857 125.403H183.027C190.628 125.403 195.278 122.121 197.841 119.369C198.944 118.185 200.142 116.569 201.116 114.447C202.086 116.565 203.287 118.185 204.387 119.366C206.95 122.118 211.6 125.399 219.201 125.399H227.371C234.971 125.399 239.622 122.118 242.184 119.366C244.572 116.799 247.421 112.197 247.421 104.847V65.9723C247.421 59.3852 246.552 53.7979 244.765 48.8897C242.855 43.6577 240.125 39.2686 236.651 35.8409C233.072 32.3122 228.778 29.738 223.886 28.1879C219.683 26.8607 215.189 26.1919 210.514 26.1919V26.1954Z" fill="white"/>
<path d="M278.197 39.0839C283.469 39.0839 288.42 39.9896 293.042 41.801C297.665 43.6123 301.684 46.1691 305.102 49.4644C308.516 52.7632 311.215 56.7343 313.205 61.3777C315.192 66.0245 316.187 71.18 316.187 76.844C316.187 82.508 315.192 87.5032 313.205 92.1013C311.215 96.6994 308.516 100.65 305.102 103.945C301.687 107.244 297.689 109.776 293.109 111.539C288.525 113.301 283.598 114.186 278.326 114.186C273.055 114.186 268.125 113.301 263.544 111.539C258.96 109.776 254.962 107.244 251.551 103.945C248.137 100.65 245.435 96.6994 243.448 92.1013C241.458 87.5032 240.466 82.4174 240.466 76.844C240.466 71.2705 241.458 66.0245 243.448 61.3777C245.435 56.7343 248.137 52.7632 251.551 49.4644C254.966 46.1691 258.963 43.6123 263.544 41.801C268.125 39.9896 273.009 39.0839 278.194 39.0839M278.323 93.9823C280.397 93.9823 282.342 93.5922 284.157 92.8084C285.972 92.0246 287.572 90.896 288.954 89.4191C290.337 87.9456 291.436 86.1481 292.26 84.0302C293.081 81.9088 293.493 79.5157 293.493 76.8405C293.493 74.1652 293.081 71.7512 292.26 69.5846C291.436 67.4214 290.337 65.5752 288.954 64.0564C287.572 62.5376 285.972 61.3603 284.157 60.5312C282.342 59.7022 280.397 59.2841 278.323 59.2841C276.249 59.2841 274.304 59.6987 272.489 60.5312C270.673 61.3603 269.074 62.5376 267.692 64.0564C266.309 65.5752 265.206 67.4214 264.386 69.5846C263.562 71.7512 263.153 74.1687 263.153 76.8405C263.153 79.5123 263.562 81.9088 264.386 84.0302C265.206 86.1516 266.309 87.9456 267.692 89.4191C269.074 90.896 270.673 92.0246 272.489 92.8084C274.304 93.5922 276.249 93.9823 278.323 93.9823ZM278.194 26.1953C271.393 26.1953 264.864 27.4145 258.782 29.8181C252.644 32.246 247.187 35.7398 242.565 40.2021C237.925 44.6852 234.224 50.1054 231.563 56.3163C228.896 62.5446 227.545 69.4522 227.545 76.844C227.545 84.2358 228.903 91.0144 231.584 97.2079C234.241 103.356 237.939 108.738 242.568 113.207C247.215 117.697 252.707 121.181 258.894 123.563C264.944 125.894 271.483 127.075 278.323 127.075C285.163 127.075 291.698 125.894 297.752 123.563C303.935 121.184 309.427 117.697 314.081 113.207C318.707 108.741 322.401 103.36 325.062 97.2114C327.743 91.0075 329.101 84.1591 329.101 76.844C329.101 69.5288 327.75 62.5516 325.082 56.3163C322.422 50.1019 318.721 44.6852 314.085 40.2056C309.448 35.7294 303.956 32.232 297.763 29.8041C291.646 27.4075 285.065 26.1953 278.194 26.1953ZM278.323 81.0937C277.88 81.0937 277.698 81.0136 277.618 80.9823C277.464 80.9161 277.321 80.829 277.129 80.6235C276.881 80.3622 276.647 79.9372 276.434 79.3903C276.267 78.9549 276.068 78.1712 276.068 76.844C276.068 75.7467 276.2 74.841 276.462 74.1548C276.703 73.5208 276.975 73.0296 277.251 72.7266C277.516 72.4375 277.708 72.326 277.866 72.2528C277.928 72.225 278.03 72.1762 278.323 72.1762C278.616 72.1762 278.717 72.2215 278.777 72.2494C278.934 72.3225 279.129 72.434 279.391 72.7231C279.664 73.0227 279.939 73.5208 280.18 74.1548C280.439 74.8375 280.571 75.7467 280.571 76.8405C280.571 77.9343 280.446 78.7703 280.205 79.3903C279.992 79.9338 279.754 80.3622 279.517 80.6165C279.321 80.8255 279.178 80.9126 279.025 80.9788C278.948 81.0136 278.763 81.0902 278.319 81.0902L278.323 81.0937Z" fill="white"/>
<path d="M338.488 12.8887C343.24 12.8887 345.621 15.4455 345.621 20.5521V42.0099C345.621 42.94 345.6 43.776 345.555 44.5179C345.509 45.2634 345.488 45.9113 345.488 46.4686C345.401 47.12 345.359 47.6774 345.359 48.1407H345.617C346.825 46.4686 348.341 44.9847 350.156 43.6819C351.626 42.5672 353.529 41.5222 355.861 40.5469C358.193 39.5715 360.916 39.0838 364.031 39.0838C368.44 39.0838 372.459 39.9895 376.09 41.8009C379.721 43.6123 382.832 46.1691 385.426 49.4644C388.02 52.7632 390.048 56.6889 391.518 61.2383C392.988 65.7911 393.721 70.8072 393.721 76.2866C393.721 82.0481 392.922 87.2732 391.323 91.9619C389.723 96.654 387.541 100.649 384.776 103.945C382.008 107.244 378.768 109.776 375.053 111.539C371.335 113.301 367.316 114.186 362.994 114.186C359.363 114.186 356.36 113.674 353.983 112.653C351.605 111.633 349.681 110.473 348.211 109.17C346.48 107.686 345.055 106.014 343.931 104.154H343.673V104.572C343.673 104.76 343.694 104.92 343.739 105.059C343.781 105.199 343.805 105.363 343.805 105.547V106.104C343.805 107.965 343.198 109.497 341.99 110.703C340.778 111.911 339.008 112.514 336.673 112.514H330.318C325.563 112.514 323.186 109.961 323.186 104.85V20.5521C323.186 15.4455 325.563 12.8887 330.318 12.8887H338.488ZM357.809 94.2609C361.524 94.2609 364.68 92.77 367.274 89.7848C369.868 86.803 371.164 82.5114 371.164 76.9136C371.164 71.3158 369.973 67.3307 367.599 64.1156C365.221 60.8969 362.09 59.2876 358.2 59.2876C356.468 59.2876 354.807 59.6394 353.208 60.3361C351.609 61.0362 350.202 62.0847 348.994 63.4851C347.782 64.8854 346.808 66.6584 346.075 68.8007C345.338 70.9465 344.972 73.4615 344.972 76.3527C344.972 78.7772 345.251 81.0658 345.813 83.2081C346.375 85.3539 347.195 87.2419 348.278 88.8756C349.357 90.5093 350.697 91.8121 352.296 92.7909C353.895 93.7698 355.732 94.2574 357.806 94.2574M338.488 6.5433e-05H330.318C322.714 6.5433e-05 318.064 3.28143 315.501 6.0368C313.113 8.60407 310.268 13.2022 310.268 20.5521V104.85C310.268 112.2 313.113 116.802 315.501 119.369C318.064 122.121 322.714 125.403 330.318 125.403H336.673C340.649 125.403 343.816 124.504 346.291 123.278C347.122 123.703 347.985 124.11 348.878 124.493C352.921 126.232 357.54 127.075 362.997 127.075C369.229 127.075 375.154 125.765 380.601 123.18C385.991 120.623 390.729 116.934 394.685 112.218C398.462 107.714 401.447 102.297 403.556 96.1141C405.606 90.1017 406.643 83.431 406.643 76.2866C406.643 69.1421 405.693 63.1019 403.818 57.2881C401.88 51.2966 399.115 45.9879 395.592 41.5083C391.818 36.7116 387.203 32.9321 381.871 30.2708C376.449 27.5642 370.448 26.1918 364.034 26.1918C362.138 26.1918 360.305 26.3207 358.539 26.5749V20.5487C358.539 13.1987 355.693 8.5971 353.305 6.03332C350.743 3.28143 346.092 -0.00341797 338.492 -0.00341797L338.488 6.5433e-05ZM358.123 79.0942C357.97 78.2477 357.889 77.3316 357.889 76.3562C357.889 75.3809 357.952 74.6772 358.033 74.1269C358.169 74.935 358.242 75.879 358.242 76.9171C358.242 77.7809 358.193 78.502 358.12 79.0977L358.123 79.0942Z" fill="white"/>
<path d="M434.826 39.0839C440.098 39.0839 445.049 39.9896 449.671 41.801C454.294 43.6123 458.312 46.1691 461.73 49.4644C465.145 52.7632 467.844 56.7343 469.834 61.3777C471.82 66.0245 472.815 71.18 472.815 76.844C472.815 82.508 471.82 87.5032 469.834 92.1013C467.844 96.6994 465.145 100.65 461.73 103.945C458.316 107.244 454.318 109.776 449.738 111.539C445.154 113.301 440.227 114.186 434.955 114.186C429.683 114.186 424.754 113.301 420.173 111.539C415.589 109.776 411.591 107.244 408.18 103.945C404.766 100.65 402.063 96.6994 400.077 92.1013C398.087 87.5032 397.095 82.4174 397.095 76.844C397.095 71.2705 398.087 66.0245 400.077 61.3777C402.063 56.7343 404.766 52.7632 408.18 49.4644C411.595 46.1691 415.592 43.6123 420.173 41.801C424.754 39.9896 429.638 39.0839 434.823 39.0839M434.952 93.9823C437.026 93.9823 438.97 93.5922 440.786 92.8084C442.601 92.0246 444.2 90.896 445.583 89.4191C446.966 87.9456 448.065 86.1481 448.889 84.0302C449.71 81.9088 450.122 79.5157 450.122 76.8405C450.122 74.1652 449.71 71.7512 448.889 69.5846C448.065 67.4214 446.966 65.5752 445.583 64.0564C444.2 62.5376 442.601 61.3603 440.786 60.5312C438.97 59.7022 437.026 59.2841 434.952 59.2841C432.878 59.2841 430.933 59.6987 429.118 60.5312C427.302 61.3603 425.703 62.5376 424.321 64.0564C422.938 65.5752 421.835 67.4214 421.014 69.5846C420.19 71.7512 419.782 74.1687 419.782 76.8405C419.782 79.5123 420.19 81.9088 421.014 84.0302C421.835 86.1516 422.938 87.9456 424.321 89.4191C425.703 90.896 427.302 92.0246 429.118 92.8084C430.933 93.5922 432.878 93.9823 434.952 93.9823ZM434.823 26.1953C428.022 26.1953 421.493 27.4145 415.411 29.8181C409.273 32.246 403.816 35.7398 399.194 40.2021C394.554 44.6852 390.853 50.1054 388.192 56.3163C385.525 62.5446 384.174 69.4522 384.174 76.844C384.174 84.2358 385.532 91.0144 388.213 97.2079C390.87 103.356 394.568 108.738 399.197 113.207C403.844 117.697 409.336 121.181 415.523 123.563C421.573 125.894 428.112 127.075 434.952 127.075C441.791 127.075 448.327 125.894 454.381 123.563C460.564 121.184 466.056 117.697 470.71 113.207C475.336 108.741 479.03 103.36 481.69 97.2114C484.372 91.0075 485.73 84.1591 485.73 76.844C485.73 69.5288 484.379 62.5516 481.711 56.3163C479.051 50.1019 475.35 44.6852 470.714 40.2056C466.077 35.7294 460.585 32.232 454.392 29.8041C448.275 27.4075 441.694 26.1953 434.823 26.1953ZM434.952 81.0937C434.508 81.0937 434.327 81.0136 434.247 80.9823C434.093 80.9161 433.95 80.829 433.758 80.6235C433.51 80.3622 433.276 79.9372 433.063 79.3903C432.895 78.9549 432.696 78.1712 432.696 76.844C432.696 75.7467 432.829 74.841 433.091 74.1548C433.332 73.5208 433.604 73.0296 433.88 72.7266C434.145 72.4375 434.337 72.326 434.495 72.2528C434.557 72.225 434.659 72.1762 434.952 72.1762C435.245 72.1762 435.346 72.2215 435.406 72.2494C435.563 72.3225 435.758 72.434 436.02 72.7231C436.293 73.0227 436.568 73.5208 436.809 74.1548C437.068 74.8375 437.2 75.7467 437.2 76.8405C437.2 77.9343 437.075 78.7703 436.834 79.3903C436.621 79.9338 436.383 80.3622 436.146 80.6165C435.95 80.8255 435.807 80.9126 435.654 80.9788C435.577 81.0136 435.392 81.0902 434.948 81.0902L434.952 81.0937Z" fill="white"/>
<path d="M513.656 39.0839C518.928 39.0839 523.879 39.9896 528.501 41.801C533.124 43.6123 537.143 46.1691 540.561 49.4644C543.975 52.7632 546.674 56.7343 548.664 61.3777C550.65 66.0245 551.646 71.18 551.646 76.844C551.646 82.508 550.65 87.5032 548.664 92.1013C546.674 96.6994 543.975 100.65 540.561 103.945C537.146 107.244 533.148 109.776 528.568 111.539C523.984 113.301 519.057 114.186 513.785 114.186C508.514 114.186 503.584 113.301 499.003 111.539C494.419 109.776 490.421 107.244 487.01 103.945C483.596 100.65 480.894 96.6994 478.907 92.1013C476.917 87.5032 475.925 82.4174 475.925 76.844C475.925 71.2705 476.917 66.0245 478.907 61.3777C480.894 56.7343 483.596 52.7632 487.01 49.4644C490.425 46.1691 494.422 43.6123 499.003 41.801C503.584 39.9896 508.468 39.0839 513.653 39.0839M513.782 93.9823C515.856 93.9823 517.8 93.5922 519.616 92.8084C521.431 92.0246 523.031 90.896 524.413 89.4191C525.796 87.9456 526.895 86.1481 527.719 84.0302C528.54 81.9088 528.952 79.5157 528.952 76.8405C528.952 74.1652 528.54 71.7512 527.719 69.5846C526.895 67.4214 525.796 65.5752 524.413 64.0564C523.031 62.5376 521.431 61.3603 519.616 60.5312C517.8 59.7022 515.856 59.2841 513.782 59.2841C511.708 59.2841 509.763 59.6987 507.948 60.5312C506.132 61.3603 504.533 62.5376 503.151 64.0564C501.768 65.5752 500.665 67.4214 499.845 69.5846C499.021 71.7512 498.612 74.1687 498.612 76.8405C498.612 79.5123 499.021 81.9088 499.845 84.0302C500.665 86.1516 501.768 87.9456 503.151 89.4191C504.533 90.896 506.132 92.0246 507.948 92.8084C509.763 93.5922 511.708 93.9823 513.782 93.9823ZM513.653 26.1953C506.852 26.1953 500.323 27.4145 494.241 29.8181C488.103 32.246 482.646 35.7398 478.024 40.2021C473.384 44.6852 469.683 50.1054 467.022 56.3163C464.355 62.5446 463.004 69.4522 463.004 76.844C463.004 84.2358 464.362 91.0144 467.043 97.2079C469.7 103.356 473.398 108.738 478.027 113.207C482.674 117.697 488.166 121.181 494.353 123.563C500.403 125.894 506.942 127.075 513.782 127.075C520.621 127.075 527.157 125.894 533.211 123.563C539.394 121.184 544.886 117.697 549.54 113.207C554.166 108.741 557.86 103.36 560.52 97.2114C563.202 91.0075 564.56 84.1591 564.56 76.844C564.56 69.5288 563.209 62.5516 560.541 56.3163C557.881 50.1019 554.18 44.6852 549.544 40.2056C544.907 35.7294 539.415 32.232 533.222 29.8041C527.105 27.4075 520.524 26.1953 513.653 26.1953ZM513.782 81.0937C513.339 81.0937 513.157 81.0136 513.077 80.9823C512.923 80.9161 512.78 80.829 512.588 80.6235C512.34 80.3622 512.106 79.9372 511.893 79.3903C511.726 78.9549 511.527 78.1712 511.527 76.844C511.527 75.7467 511.659 74.841 511.921 74.1548C512.162 73.5208 512.434 73.0296 512.71 72.7266C512.975 72.4375 513.167 72.326 513.325 72.2528C513.387 72.225 513.489 72.1762 513.782 72.1762C514.075 72.1762 514.176 72.2215 514.236 72.2494C514.393 72.3225 514.588 72.434 514.85 72.7231C515.123 73.0227 515.398 73.5208 515.639 74.1548C515.898 74.8375 516.03 75.7467 516.03 76.8405C516.03 77.9343 515.905 78.7703 515.664 79.3903C515.451 79.9338 515.213 80.3622 514.976 80.6165C514.78 80.8255 514.637 80.9126 514.484 80.9788C514.407 81.0136 514.222 81.0902 513.778 81.0902L513.782 81.0937Z" fill="white"/>
<path d="M81.5088 76.0776C81.0131 73.9144 80.2275 71.8522 79.1487 69.898C79.0928 69.797 79.037 69.696 78.9811 69.5985C77.815 67.5572 76.3207 65.7214 74.5052 64.0947C74.2817 63.8961 74.0548 63.7011 73.8174 63.5164C72.1346 62.1753 70.1131 61.1373 67.7634 60.4023V60.1236C71.3071 57.9883 73.9885 54.9682 75.804 51.0668C77.6195 47.1654 78.5272 43.1246 78.5272 38.9445C78.5272 34.7644 77.7486 30.9118 76.1915 27.6583C74.6379 24.4083 72.4732 21.6912 69.7081 19.5071C66.943 17.3265 63.6367 15.6754 59.7892 14.5607C55.9417 13.446 51.6858 12.8887 47.0179 12.8887H20.0508C15.2956 12.8887 12.918 15.4455 12.918 20.5522V104.85C12.918 109.961 15.2956 112.514 20.0508 112.514H47.0179C51.5985 112.514 56.029 111.981 60.3094 110.912C64.5863 109.846 68.3465 108.149 71.5899 105.826C73.8768 104.189 75.8424 102.189 77.4833 99.8309C78.1676 98.8486 78.7961 97.8071 79.3686 96.6993C80.1088 95.2677 80.7093 93.7106 81.1667 92.0281C81.9138 89.2936 82.2874 86.2317 82.2874 82.8354C82.2874 80.606 82.0255 78.3557 81.5088 76.0776ZM35.6082 33.7891H46.8887C49.9122 33.7891 52.0943 34.6251 53.4385 36.2971C54.7756 37.9692 55.446 39.9686 55.446 42.2886C55.446 44.6085 54.8001 46.8414 53.5013 48.698C52.206 50.5582 50.1322 51.4848 47.2797 51.4848H35.6082V33.7891ZM56.6121 88.4785C54.9711 90.5685 52.5063 91.6136 49.2244 91.6136H35.6082V70.9918H49.3536C52.6354 70.9918 55.0794 71.9916 56.6784 73.9875C58.2774 75.987 59.077 78.3766 59.077 81.1634C59.077 83.9501 58.253 86.3885 56.6121 88.4785Z" fill="#74A51D"/>
<path d="M234.506 69.6926C234.174 72.0056 234.007 74.3917 234.007 76.8441C234.007 79.2964 234.174 81.6059 234.506 83.8875V104.851C234.506 109.961 232.125 112.514 227.373 112.514H219.203C214.452 112.514 212.074 109.961 212.074 104.851V70.4346C212.074 67.0905 211.466 64.6765 210.258 63.1891C209.047 61.7052 207.19 60.9597 204.683 60.9597C202.176 60.9597 200.015 61.4718 198.199 62.4924C196.384 63.5166 194.872 64.9099 193.661 66.6725C192.449 68.4386 191.566 70.4834 191.004 72.8033C190.442 75.1267 190.162 77.5407 190.162 80.0488V104.851C190.162 109.961 187.781 112.514 183.03 112.514H174.86C170.105 112.514 167.73 109.961 167.73 104.851V48.4195C167.73 43.3128 170.105 40.756 174.86 40.756H182.122C186.79 40.756 189.122 43.3128 189.122 48.4195V49.6735C189.122 49.8616 189.101 50.0462 189.059 50.2309C189.014 50.419 188.993 50.6036 188.993 50.7882V51.4849H189.255C190.03 50.0915 191.025 48.6529 192.236 47.1655C193.444 45.6815 194.914 44.3579 196.642 43.1944C198.37 42.0344 200.381 41.0591 202.672 40.2683C204.962 39.4811 207.577 39.084 210.517 39.084C213.889 39.084 217.042 39.5508 219.982 40.4773C222.922 41.4074 225.449 42.9157 227.569 45.0058C229.684 47.0958 231.371 49.8616 232.624 53.2963C232.673 53.4356 232.725 53.5749 232.771 53.7178C233.926 57.0792 234.506 61.1618 234.506 65.9758V69.6926Z" fill="#74A51D"/>
<path d="M313.208 61.3778C312.359 59.3992 311.378 57.5356 310.271 55.8008C308.781 53.467 307.059 51.356 305.101 49.4645C301.686 46.1692 297.668 43.6124 293.045 41.801C288.419 39.9897 283.468 39.084 278.196 39.084C272.925 39.084 268.127 39.9897 263.547 41.801C258.963 43.6124 254.965 46.1692 251.554 49.4645C249.669 51.2863 248 53.3102 246.551 55.5431C245.374 57.3509 244.337 59.2982 243.451 61.3778C242.271 64.1296 241.443 67.0627 240.965 70.1699V83.4172C241.443 86.4826 242.271 89.3773 243.451 92.1014C244.554 94.6547 245.877 97.006 247.424 99.1587C248.656 100.883 250.035 102.478 251.554 103.945C254.965 107.244 258.963 109.776 263.547 111.539C268.127 113.301 273.054 114.186 278.329 114.186C283.605 114.186 288.527 113.301 293.108 111.539C297.689 109.776 301.686 107.244 305.101 103.945C307.059 102.057 308.781 99.9495 310.271 97.633C311.378 95.9087 312.359 94.0625 313.208 92.1014C315.194 87.5033 316.189 82.4175 316.189 76.8441C316.189 71.2706 315.194 66.0246 313.208 61.3778ZM292.267 84.0303C291.443 86.1517 290.343 87.9491 288.96 89.4226C287.578 90.8961 285.979 92.0247 284.163 92.8085C282.348 93.5923 280.403 93.9824 278.329 93.9824C276.255 93.9824 274.307 93.5923 272.492 92.8085C270.68 92.0247 269.077 90.8961 267.695 89.4226C266.312 87.9491 265.209 86.1517 264.388 84.0303C263.568 81.9089 263.159 79.5158 263.159 76.8406C263.159 74.1653 263.568 71.7513 264.388 69.5847C265.209 67.4215 266.312 65.5787 267.695 64.0565C269.077 62.5377 270.68 61.3638 272.492 60.5348C274.307 59.7022 276.252 59.2877 278.329 59.2877C280.407 59.2877 282.348 59.7022 284.163 60.5348C285.979 61.3638 287.578 62.5377 288.96 64.0565C290.343 65.5787 291.443 67.4215 292.267 69.5847C293.087 71.7513 293.499 74.1723 293.499 76.8406C293.499 79.5089 293.087 81.9089 292.267 84.0303Z" fill="#74A51D"/>
<path d="M392.315 64.0494C392.081 63.0949 391.815 62.1579 391.518 61.2383C390.778 58.9427 389.895 56.8074 388.865 54.8288C387.86 52.8886 386.711 51.1016 385.426 49.4644C382.832 46.1691 379.721 43.6123 376.09 41.8009C372.459 39.9895 368.441 39.0839 364.031 39.0839C360.92 39.0839 358.197 39.5715 355.865 40.5469C353.529 41.5222 351.626 42.5673 350.157 43.6819C348.345 44.9847 346.829 46.4687 345.621 48.1407H345.359C345.359 47.6774 345.405 47.1201 345.492 46.4687C345.492 45.9113 345.51 45.2634 345.555 44.518C345.597 43.776 345.621 42.94 345.621 42.0099V20.5522C345.621 15.4455 343.24 12.8887 338.489 12.8887H330.319C325.567 12.8887 323.189 15.4455 323.189 20.5522V104.85C323.189 109.961 325.567 112.514 330.319 112.514H336.673C339.009 112.514 340.779 111.911 341.99 110.703C343.198 109.497 343.806 107.965 343.806 106.105V105.547C343.806 105.363 343.781 105.199 343.739 105.059C343.694 104.92 343.677 104.76 343.677 104.572V104.154H343.935C345.056 106.014 346.484 107.686 348.212 109.17C349.682 110.473 351.605 111.633 353.983 112.653C356.361 113.674 359.363 114.186 362.994 114.186C367.316 114.186 371.335 113.301 375.053 111.539C378.768 109.776 382.012 107.244 384.777 103.945C386.229 102.217 387.517 100.294 388.645 98.1763C389.672 96.2639 390.565 94.1948 391.326 91.9619C391.651 91.0109 391.941 90.0391 392.196 89.0428C393.215 85.1275 393.725 80.8812 393.725 76.2866C393.725 71.692 393.257 67.8324 392.315 64.0494ZM367.275 89.7848C364.681 92.77 361.524 94.2609 357.81 94.2609C355.732 94.2609 353.896 93.7733 352.297 92.7944C350.698 91.8156 349.357 90.5093 348.278 88.8756C347.196 87.2454 346.375 85.3574 345.813 83.2116C345.251 81.0658 344.972 78.7807 344.972 76.3528C344.972 73.4615 345.339 70.9465 346.075 68.8008C346.808 66.6585 347.779 64.8854 348.99 63.4851C350.202 62.0882 351.605 61.0397 353.204 60.3361C354.804 59.6394 356.465 59.2876 358.197 59.2876C362.086 59.2876 365.218 60.8969 367.596 64.1156C369.973 67.3308 371.164 71.5979 371.164 76.9136C371.164 82.5114 369.865 86.803 367.275 89.7848Z" fill="#FCBC05"/>
<path d="M471.009 64.5581C470.67 63.4713 470.276 62.4123 469.832 61.3778C469.04 59.5246 468.132 57.7794 467.106 56.1387C465.573 53.6725 463.782 51.4466 461.729 49.4645C458.314 46.1692 454.296 43.6124 449.67 41.801C445.047 39.9897 440.097 39.084 434.825 39.084C429.553 39.084 424.756 39.9897 420.175 41.801C415.591 43.6124 411.593 46.1692 408.179 49.4645C406.304 51.2759 404.646 53.2893 403.204 55.5047C402.017 57.3266 400.973 59.2842 400.075 61.3778C399.67 62.3183 399.311 63.2832 398.99 64.2655C397.722 68.139 397.094 72.3296 397.094 76.8441C397.094 81.3586 397.684 85.1624 398.874 88.8862C399.22 89.9835 399.621 91.0563 400.075 92.1014C400.924 94.0625 401.901 95.9052 403.012 97.6295C404.499 99.9495 406.22 102.057 408.179 103.945C411.593 107.244 415.591 109.776 420.175 111.539C424.756 113.301 429.682 114.186 434.954 114.186C440.226 114.186 445.152 113.301 449.736 111.539C454.317 109.776 458.314 107.244 461.729 103.945C463.775 101.97 465.566 99.7614 467.095 97.316C468.122 95.6823 469.036 93.9441 469.832 92.1014C470.276 91.0807 470.667 90.0392 471.009 88.9698C472.213 85.2216 472.814 81.1809 472.814 76.8441C472.814 72.5072 472.213 68.348 471.009 64.5581ZM448.895 84.0303C448.071 86.1517 446.968 87.9491 445.588 89.4226C444.202 90.8961 442.603 92.0247 440.791 92.8085C438.976 93.5923 437.028 93.9824 434.954 93.9824C432.88 93.9824 430.935 93.5923 429.12 92.8085C427.304 92.0247 425.705 90.8961 424.323 89.4226C422.94 87.9491 421.837 86.1517 421.016 84.0303C420.192 81.9089 419.784 79.5158 419.784 76.8406C419.784 74.1653 420.192 71.7513 421.016 69.5847C421.837 67.4215 422.94 65.5787 424.323 64.0565C425.705 62.5377 427.304 61.3638 429.12 60.5348C430.935 59.7022 432.88 59.2877 434.954 59.2877C437.028 59.2877 438.976 59.7022 440.791 60.5348C442.603 61.3638 444.202 62.5377 445.588 64.0565C446.968 65.5787 448.071 67.4215 448.895 69.5847C449.715 71.7513 450.124 74.1723 450.124 76.8406C450.124 79.5089 449.715 81.9089 448.895 84.0303Z" fill="#FFE656"/>
<path d="M548.668 61.3778C546.678 56.7344 543.975 52.7633 540.564 49.4645C537.146 46.1692 533.128 43.6124 528.505 41.801C523.879 39.9897 518.929 39.084 513.657 39.084C508.385 39.084 503.588 39.9897 499.007 41.801C494.423 43.6124 490.425 46.1692 487.014 49.4645C484.961 51.4466 483.167 53.669 481.634 56.1352C480.611 57.7759 479.707 59.5246 478.911 61.3778C478.467 62.4123 478.073 63.4713 477.731 64.5581C476.526 68.348 475.926 72.441 475.926 76.8441C475.926 81.2471 476.53 85.2216 477.734 88.9663C478.076 90.0357 478.467 91.0807 478.911 92.1014C479.71 93.9441 480.618 95.6858 481.645 97.3195C483.177 99.7614 484.968 101.97 487.014 103.945C490.425 107.244 494.423 109.776 499.007 111.539C503.588 113.301 508.514 114.186 513.789 114.186C519.065 114.186 523.988 113.301 528.568 111.539C533.149 109.776 537.146 107.244 540.564 103.945C543.975 100.65 546.678 96.6995 548.668 92.1014C550.654 87.5033 551.649 82.4175 551.649 76.8441C551.649 71.2706 550.654 66.0246 548.668 61.3778ZM527.727 84.0303C526.903 86.1517 525.803 87.9491 524.42 89.4226C523.038 90.8961 521.439 92.0247 519.623 92.8085C517.808 93.5923 515.863 93.9824 513.789 93.9824C511.715 93.9824 509.767 93.5923 507.952 92.8085C506.14 92.0247 504.537 90.8961 503.155 89.4226C501.772 87.9491 500.669 86.1517 499.848 84.0303C499.028 81.9089 498.619 79.5158 498.619 76.8406C498.619 74.1653 499.028 71.7513 499.848 69.5847C500.669 67.4215 501.772 65.5787 503.155 64.0565C504.537 62.5377 506.14 61.3638 507.952 60.5348C509.767 59.7022 511.712 59.2877 513.789 59.2877C515.867 59.2877 517.808 59.7022 519.623 60.5348C521.439 61.3638 523.038 62.5377 524.42 64.0565C525.803 65.5787 526.903 67.4215 527.727 69.5847C528.547 71.7513 528.959 74.1723 528.959 76.8406C528.959 79.5089 528.547 81.9089 527.727 84.0303Z" fill="#FCBC05"/>
<path d="M164.816 64.1292C164.485 58.6986 161.803 54.299 154.904 52.5678C153.794 50.833 154.112 48.7082 153.396 46.8864C148.218 33.7365 134.543 24.6622 119.89 26.4249C117.149 26.7558 114.349 27.1947 111.8 29.0548C119.76 29.3439 126.523 31.6709 131.966 37.3279C130.842 38.1291 130.06 37.314 129.404 36.8994C126.834 35.2831 124.002 34.4053 121.094 33.7504C105.669 30.2914 93.5161 38.6063 92.5839 53.2157C89.4312 54.9574 87.0117 57.3157 85.9608 60.8792C84.3129 66.4805 86.6207 70.7024 90.6043 74.3599C86.8651 76.4221 83.8451 79.282 81.7084 82.9465C77.7003 89.8158 77.5572 96.7861 81.9737 103.506C86.4112 110.253 92.6816 113.809 101.309 113.635C91.9415 107.4 91.1873 100.642 91.8856 95.3579C98.1316 104.599 106.87 109.03 117.509 110.03C127.965 111.012 137.556 108.462 146.504 102.621C147.412 105.982 146.672 108.929 145.781 111.869C145.614 112.423 144.779 113.026 145.834 113.59C147.981 114.74 153.742 113.256 154.971 111.287C159.115 104.652 159.042 97.8799 155.711 90.9827C155.198 89.9203 154.573 88.9206 154.751 87.6178C155.271 83.8174 154.573 80.1076 153.801 76.4082C154.374 76.2549 154.946 76.0982 155.519 75.9519C161.115 74.5306 165.158 69.5563 164.823 64.1292H164.816ZM97.3112 70.2495C95.9251 70.2704 94.9929 69.2393 94.2597 68.1699C92.7899 66.0276 92.727 63.7042 93.8722 61.447C94.5425 60.1268 95.6528 59.0957 97.2274 58.5975C97.4264 58.7613 97.8069 58.9424 97.8034 59.1061C97.7895 59.4545 97.6498 59.8585 97.4299 60.1268C95.0651 62.9646 95.1 65.9255 97.5346 69.0094C97.978 69.5703 98.1805 70.2391 97.3147 70.253L97.3112 70.2495ZM141.026 96.9359C137.112 99.3708 132.769 100.726 128.011 100.433C120.005 100.057 112.945 97.6918 108.595 90.3592C105.125 84.5106 105.879 78.7316 110.47 73.6807C113.354 70.5073 113.48 69.417 111.301 66.4561C108.169 62.1924 107.803 58.5523 110.215 55.6297C112.858 52.4284 118.738 51.3834 122.892 53.3829C123.07 53.47 123.231 53.5884 123.398 53.6964C126.038 55.4033 128.307 56.187 131.537 54.0447C135.796 51.2197 141.061 51.9686 144.043 54.7101C147.468 57.8556 147.855 61.1683 145.226 65.0105C144.664 65.8291 143.935 66.5502 143.474 67.4175C142.388 69.4518 142.356 71.4339 144.357 72.9735C151.734 78.648 151.542 90.394 141.026 96.9428V96.9359ZM153.728 70.1241C153.194 69.3578 154.161 69.0164 154.66 68.5636C157.582 65.9127 157.669 63.4813 154.988 60.7189C154.988 60.1442 154.988 59.5659 154.988 58.9912C159.345 61.5445 159.684 66.8219 155.648 69.741C155.103 70.1346 154.384 71.0716 153.724 70.1241H153.728Z" fill="#512C00"/>
<path d="M144.357 72.9664C142.357 71.4267 142.388 69.4447 143.474 67.4103C143.935 66.543 144.665 65.8219 145.227 65.0033C147.856 61.1611 147.468 57.8519 144.043 54.7029C141.061 51.9615 135.797 51.2125 131.537 54.0376C128.304 56.1799 126.038 55.3961 123.399 53.6892C123.231 53.5812 123.071 53.4628 122.893 53.3757C118.738 51.3797 112.858 52.4247 110.215 55.6225C107.803 58.5451 108.17 62.1852 111.301 66.4489C113.476 69.4098 113.351 70.5036 110.47 73.6735C105.879 78.7244 105.125 84.5069 108.595 90.352C112.949 97.6881 120.005 100.05 128.011 100.426C132.77 100.719 137.113 99.3671 141.027 96.9287C151.542 90.3799 151.734 78.6339 144.357 72.9594V72.9664ZM133.813 64.0976C134.131 62.3803 135.039 61.3144 136.854 61.6488C138.534 61.9588 139.902 62.9516 139.665 64.8257C139.448 66.5534 138.247 67.6925 136.355 67.4347C134.484 67.1804 133.73 65.8951 133.817 64.0976H133.813ZM118.787 61.6383C120.578 61.6244 121.831 62.8088 121.817 64.5679C121.807 66.2678 120.791 67.4347 118.836 67.5044C116.678 67.5845 116.378 66.0274 115.938 64.547C116.259 62.8993 117.09 61.6523 118.787 61.6383ZM113.826 84.7542C118.193 87.2553 122.865 88.2794 127.847 88.2481C132.728 88.2132 137.476 87.8231 141.892 85.2837C137.249 92.24 120.085 91.8917 113.826 84.7577V84.7542Z" fill="white"/>
<path d="M155.652 69.741C155.108 70.1346 154.388 71.0716 153.728 70.1242C153.194 69.3578 154.161 69.0164 154.661 68.5636C157.583 65.9127 157.67 63.4813 154.989 60.719C154.989 60.1442 154.989 59.566 154.989 58.9912C159.346 61.5445 159.685 66.8219 155.649 69.741H155.652Z" fill="white"/>
<path d="M97.3112 70.2531C95.9252 70.274 94.993 69.2429 94.2598 68.1735C92.79 66.0312 92.7271 63.7077 93.8723 61.4505C94.5426 60.1303 95.6529 59.0992 97.2275 58.6011C97.4265 58.7648 97.807 58.9459 97.8035 59.1097C97.7896 59.458 97.6499 59.8621 97.4299 60.1303C95.0651 62.9681 95.1001 65.929 97.5347 69.013C97.9781 69.5738 98.1806 70.2426 97.3147 70.2565L97.3112 70.2531Z" fill="white"/>
<path d="M141.891 85.2838C137.248 92.2402 120.084 91.8918 113.824 84.7578C118.192 87.2589 122.86 88.283 127.845 88.2482C132.726 88.2133 137.471 87.8232 141.888 85.2838H141.891Z" fill="black"/>
<path d="M115.938 64.5508C116.259 62.9032 117.093 61.6561 118.786 61.6422C120.581 61.6283 121.831 62.8126 121.82 64.5717C121.81 66.2716 120.79 67.4386 118.839 67.5083C116.681 67.5884 116.377 66.0313 115.941 64.5508H115.938Z" fill="black"/>
<path d="M133.813 64.098C134.131 62.3806 135.042 61.3147 136.854 61.6491C138.534 61.9591 139.902 62.9519 139.665 64.826C139.445 66.5538 138.247 67.6893 136.352 67.4351C134.48 67.1808 133.726 65.8954 133.813 64.098Z" fill="black"/>
<path d="M126.073 75.6277C125.853 76.9584 125.13 77.8641 123.755 77.8536C122.344 77.8432 121.593 76.8365 121.569 75.5406C121.541 74.1647 122.47 73.3217 123.821 73.3391C125.193 73.3565 125.877 74.311 126.073 75.6277Z" fill="black"/>
<path d="M134.554 75.6382C134.386 76.9898 133.643 77.9094 132.26 77.8188C130.926 77.7318 130.137 76.8539 130.214 75.4153C130.284 74.0951 131.153 73.3845 132.319 73.3671C133.674 73.3462 134.449 74.2344 134.554 75.6382Z" fill="black"/>
<path d="M123.534 26.209C136.766 26.209 148.648 34.8374 153.392 46.8865C154.108 48.7083 153.79 50.8332 154.9 52.5679C161.803 54.2992 164.481 58.6987 164.812 64.1293C165.148 69.5565 161.105 74.5308 155.508 75.952C154.932 76.0983 154.363 76.2551 153.79 76.4083C154.562 80.1077 155.26 83.8175 154.74 87.6179C154.562 88.9207 155.187 89.9204 155.7 90.9829C159.031 97.88 159.104 104.652 154.96 111.288C154.028 112.779 150.494 113.991 147.904 113.991C147.076 113.991 146.343 113.865 145.823 113.59C144.769 113.026 145.603 112.423 145.771 111.869C146.661 108.929 147.401 105.982 146.493 102.621C138.795 107.647 130.622 110.236 121.831 110.236C120.403 110.236 118.957 110.166 117.494 110.03C106.856 109.03 98.1174 104.599 91.8713 95.358C91.1696 100.646 91.9237 107.4 101.294 113.635C101.092 113.639 100.889 113.642 100.687 113.642C92.3741 113.642 86.2922 110.096 81.9629 103.506C77.5464 96.7862 77.6895 89.8159 81.6976 82.9467C83.8343 79.2821 86.8578 76.4223 90.5935 74.3601C86.6064 70.7025 84.2986 66.4806 85.95 60.8793C86.9974 57.3158 89.4204 54.9541 92.5731 53.2158C93.3621 40.8323 102.22 32.9703 114.293 32.9703C116.461 32.9703 118.734 33.2246 121.083 33.7506C123.995 34.402 126.823 35.2798 129.393 36.8996C129.847 37.1852 130.363 37.6659 131.013 37.6659C131.299 37.6659 131.61 37.5719 131.955 37.328C126.512 31.6745 119.75 29.3441 111.789 29.055C114.342 27.1948 117.142 26.7559 119.879 26.425C121.101 26.2787 122.319 26.2055 123.524 26.2055M123.524 18.5421C122.002 18.5421 120.465 18.6326 118.957 18.8172C115.396 19.2457 111.262 19.9459 107.254 22.865L89.3506 35.9103L91.0509 35.973C88.174 39.6062 86.2538 43.9465 85.374 48.8024C82.0153 51.4532 79.732 54.7764 78.5728 58.7231C77.3055 63.0216 77.4521 67.2017 78.9988 71.1484C79.2362 71.751 79.505 72.3432 79.8018 72.9284C77.9618 74.7607 76.3768 76.8194 75.0501 79.094C72.3303 83.7548 70.9617 88.541 70.9827 93.3168C71.0036 98.3085 72.5363 103.15 75.5319 107.707C78.4122 112.089 81.9734 115.468 86.1106 117.749C90.384 120.108 95.2894 121.302 100.68 121.302C100.931 121.302 101.19 121.302 101.445 121.295L125.887 120.797L121.527 117.896C121.625 117.896 121.722 117.896 121.82 117.896C127.336 117.896 132.727 117.014 137.943 115.262C138.582 117.418 140.083 119.219 142.185 120.341C143.809 121.208 145.729 121.651 147.893 121.651C151.224 121.651 158.35 120.331 161.468 115.335C166.82 106.763 167.214 97.1903 162.609 87.6528C162.567 87.5657 162.526 87.4786 162.48 87.388C162.665 85.3189 162.602 83.3333 162.4 81.3861C168.869 77.7878 172.919 70.9707 172.465 63.6521C172.19 59.1864 170.804 55.3372 168.342 52.2161C166.506 49.8892 164.142 48.0465 161.279 46.7123C161.126 45.9181 160.899 45.0229 160.529 44.0789C154.513 28.8007 139.64 18.5386 123.524 18.5386V18.5421Z" fill="white"/>
<path d="M153 168.611C153 167.384 153.22 166.325 153.655 165.43C154.091 164.535 154.676 163.79 155.405 163.194C156.133 162.598 156.959 162.111 157.876 161.734C158.796 161.358 159.751 161.076 160.741 160.888C161.73 160.7 162.703 160.574 163.651 160.512C164.599 160.449 165.452 160.418 166.209 160.418H167.345V159.805C167.345 158.833 167.219 158.007 166.972 157.331C166.725 156.656 166.383 156.116 165.944 155.705C165.505 155.297 164.996 155.004 164.414 154.834C163.828 154.663 163.205 154.576 162.532 154.576C161.424 154.576 160.437 154.75 159.58 155.095C158.719 155.44 158.04 155.771 157.545 156.084C156.698 156.523 156.043 156.335 155.576 155.52L155.227 154.862C154.76 153.921 154.92 153.214 155.708 152.744C156.377 152.336 157.318 151.897 158.531 151.423C159.74 150.953 161.194 150.716 162.884 150.716C165.655 150.716 167.798 151.511 169.314 153.095C170.83 154.68 171.59 156.997 171.59 160.041V173.56C171.59 174.595 171.109 175.114 170.147 175.114H169.053C168.091 175.114 167.61 174.595 167.61 173.56V171.537C167.61 171.348 167.624 171.192 167.655 171.066C167.683 170.941 167.714 170.816 167.742 170.69H167.655C167.216 171.631 166.662 172.463 165.993 173.188C165.407 173.815 164.665 174.39 163.762 174.909C162.856 175.428 161.751 175.685 160.437 175.685C159.475 175.685 158.541 175.529 157.639 175.215C156.736 174.902 155.938 174.438 155.255 173.825C154.568 173.212 154.021 172.477 153.613 171.61C153.206 170.746 153 169.75 153 168.618V168.611ZM157.287 168.234C157.287 169.175 157.628 170.049 158.315 170.847C159.001 171.648 160.03 172.049 161.399 172.049C162.333 172.049 163.17 171.822 163.916 171.366C164.658 170.91 165.285 170.314 165.798 169.575C166.306 168.837 166.7 168.022 166.979 167.127C167.254 166.231 167.394 165.347 167.394 164.465V163.431H166.258C165.47 163.431 164.567 163.469 163.546 163.549C162.525 163.629 161.549 163.824 160.615 164.138C159.681 164.451 158.893 164.932 158.252 165.573C157.611 166.217 157.29 167.102 157.29 168.234H157.287Z" fill="#74A51D"/>
<path d="M176.539 152.831C176.539 151.796 177.02 151.277 177.982 151.277H179.209C180.171 151.277 180.652 151.796 180.652 152.831V154.949C180.652 155.262 180.624 155.576 180.564 155.889C180.537 156.015 180.519 156.157 180.519 156.314H180.606C180.808 155.813 181.139 155.231 181.589 154.572C182.042 153.914 182.617 153.301 183.318 152.737C184.018 152.172 184.834 151.692 185.768 151.302C186.702 150.908 187.779 150.713 189.005 150.713C191.63 150.713 193.547 151.476 194.759 152.998C195.969 154.52 196.575 156.805 196.575 159.85V173.557C196.575 174.592 196.094 175.111 195.132 175.111H193.777C192.815 175.111 192.334 174.592 192.334 173.557V160.888C192.334 160.041 192.282 159.254 192.18 158.533C192.079 157.812 191.881 157.185 191.591 156.649C191.299 156.116 190.877 155.691 190.323 155.377C189.769 155.064 189.054 154.907 188.18 154.907C187.099 154.907 186.109 155.133 185.203 155.59C184.297 156.046 183.52 156.666 182.861 157.45C182.206 158.234 181.694 159.171 181.331 160.254C180.965 161.337 180.784 162.49 180.784 163.716V173.561C180.784 174.595 180.303 175.114 179.341 175.114H177.985C177.024 175.114 176.543 174.595 176.543 173.561V152.834L176.539 152.831Z" fill="#74A51D"/>
<path d="M199.905 180.622C200.197 180.527 200.501 180.527 200.825 180.622C201.058 180.716 201.313 180.827 201.591 180.952C201.867 181.078 202.198 181.141 202.574 181.141C203.477 181.141 204.251 180.778 204.892 180.057C205.533 179.336 206.028 178.504 206.38 177.56L207.474 174.829L198.897 153.068C198.664 152.535 198.657 152.103 198.877 151.772C199.096 151.441 199.466 151.277 199.992 151.277H201.7C202.515 151.277 203.055 151.685 203.32 152.503L208.527 166.869C208.614 167.183 208.708 167.507 208.813 167.834C208.914 168.165 208.994 168.471 209.053 168.754C209.14 169.098 209.227 169.429 209.315 169.743H209.402L209.621 168.802C209.681 168.52 209.754 168.214 209.841 167.883C209.928 167.552 210.029 167.231 210.148 166.918L215.18 152.552C215.442 151.706 215.982 151.281 216.801 151.281H218.376C218.902 151.281 219.272 151.445 219.491 151.775C219.711 152.106 219.718 152.538 219.512 153.071L209.754 179.308C209.081 181.193 208.112 182.614 206.844 183.572C205.575 184.53 204.153 185.007 202.578 185.007C201.937 185.007 201.358 184.92 200.849 184.749C200.337 184.575 199.894 184.411 199.514 184.255C199.107 184.067 198.852 183.784 198.748 183.408C198.647 183.032 198.681 182.638 198.856 182.231L199.204 181.43C199.378 180.991 199.612 180.723 199.905 180.628V180.622Z" fill="#74A51D"/>
<path d="M231.142 163.194C231.142 161.309 231.39 159.599 231.885 158.059C232.379 156.52 233.073 155.21 233.962 154.126C234.85 153.043 235.91 152.204 237.133 151.608C238.36 151.012 239.698 150.713 241.159 150.713C242.441 150.713 243.514 150.925 244.375 151.35C245.236 151.775 245.944 152.252 246.498 152.785C247.139 153.381 247.651 154.057 248.028 154.809H248.115C248.087 154.652 248.056 154.496 248.028 154.339C248 154.182 247.982 154.018 247.982 153.844V143.412C247.982 142.377 248.463 141.858 249.425 141.858H250.781C251.743 141.858 252.224 142.377 252.224 143.412V173.557C252.224 174.591 251.743 175.11 250.781 175.11H249.645C248.683 175.11 248.202 174.623 248.202 173.651V172.285C248.202 171.878 248.216 171.596 248.247 171.439C248.247 171.314 248.261 171.202 248.293 171.108H248.205C247.798 171.986 247.258 172.756 246.585 173.418C245.999 173.982 245.25 174.501 244.33 174.971C243.41 175.441 242.267 175.678 240.897 175.678C239.409 175.678 238.06 175.372 236.851 174.759C235.642 174.146 234.613 173.292 233.766 172.191C232.92 171.094 232.271 169.781 231.818 168.259C231.365 166.736 231.139 165.047 231.139 163.194H231.142ZM235.474 163.218C235.474 164.504 235.628 165.67 235.934 166.719C236.241 167.767 236.67 168.659 237.224 169.398C237.778 170.133 238.433 170.704 239.193 171.112C239.953 171.519 240.796 171.721 241.73 171.721C242.546 171.721 243.34 171.557 244.114 171.226C244.888 170.899 245.564 170.39 246.149 169.701C246.731 169.011 247.205 168.126 247.571 167.046C247.937 165.967 248.118 164.674 248.118 163.169C248.118 162.103 247.986 161.072 247.725 160.069C247.463 159.066 247.069 158.174 246.543 157.394C246.017 156.61 245.362 155.976 244.574 155.492C243.786 155.008 242.866 154.764 241.817 154.764C240.942 154.764 240.127 154.952 239.367 155.328C238.607 155.704 237.938 156.251 237.356 156.972C236.774 157.693 236.314 158.578 235.98 159.627C235.645 160.675 235.478 161.874 235.478 163.218H235.474Z" fill="#74A51D"/>
<path d="M256.082 163.145C256.082 161.355 256.396 159.7 257.023 158.174C257.65 156.652 258.497 155.332 259.56 154.217C260.623 153.103 261.878 152.239 263.324 151.626C264.767 151.013 266.321 150.706 267.984 150.706C269.646 150.706 271.201 151.013 272.643 151.626C274.086 152.239 275.348 153.103 276.428 154.217C277.509 155.332 278.359 156.652 278.986 158.174C279.614 159.697 279.927 161.355 279.927 163.145C279.927 164.936 279.614 166.639 278.986 168.161C278.359 169.684 277.505 171.004 276.428 172.119C275.348 173.233 274.086 174.104 272.643 174.731C271.201 175.358 269.646 175.672 267.984 175.672C266.321 175.672 264.767 175.358 263.324 174.731C261.881 174.104 260.627 173.233 259.56 172.119C258.494 171.004 257.65 169.687 257.023 168.161C256.396 166.639 256.082 164.967 256.082 163.145ZM260.369 163.145C260.369 164.403 260.571 165.556 260.982 166.608C261.39 167.66 261.937 168.562 262.624 169.318C263.31 170.07 264.112 170.659 265.028 171.084C265.949 171.509 266.931 171.721 267.98 171.721C269.029 171.721 270.016 171.509 270.932 171.084C271.852 170.659 272.661 170.07 273.361 169.318C274.062 168.565 274.609 167.663 275.003 166.608C275.397 165.556 275.592 164.403 275.592 163.145C275.592 161.888 275.397 160.79 275.003 159.752C274.609 158.714 274.062 157.823 273.361 157.067C272.661 156.314 271.852 155.726 270.932 155.301C270.012 154.876 269.029 154.663 267.98 154.663C266.931 154.663 265.945 154.876 265.028 155.301C264.108 155.726 263.307 156.314 262.624 157.067C261.937 157.819 261.39 158.714 260.982 159.752C260.574 160.787 260.369 161.919 260.369 163.145Z" fill="#74A51D"/>
<path d="M283.732 152.831C283.732 151.796 284.213 151.277 285.175 151.277H286.402C287.364 151.277 287.845 151.796 287.845 152.831V154.949C287.845 155.262 287.817 155.576 287.758 155.889C287.73 156.015 287.712 156.157 287.712 156.314H287.8C288.002 155.813 288.333 155.231 288.782 154.572C289.235 153.914 289.811 153.301 290.511 152.737C291.212 152.172 292.027 151.692 292.961 151.302C293.895 150.908 294.972 150.713 296.199 150.713C298.823 150.713 300.74 151.476 301.953 152.998C303.162 154.52 303.769 156.805 303.769 159.85V173.557C303.769 174.592 303.288 175.111 302.326 175.111H300.97C300.008 175.111 299.527 174.592 299.527 173.557V160.888C299.527 160.041 299.475 159.254 299.374 158.533C299.273 157.812 299.074 157.185 298.785 156.649C298.492 156.116 298.07 155.691 297.516 155.377C296.962 155.064 296.248 154.907 295.373 154.907C294.292 154.907 293.303 155.133 292.397 155.59C291.49 156.046 290.713 156.666 290.055 157.45C289.399 158.234 288.887 159.171 288.525 160.254C288.159 161.337 287.977 162.49 287.977 163.716V173.561C287.977 174.595 287.496 175.114 286.535 175.114H285.179C284.217 175.114 283.736 174.595 283.736 173.561V152.834L283.732 152.831Z" fill="#74A51D"/>
<path d="M306.922 168.611C306.922 167.384 307.141 166.325 307.577 165.43C308.013 164.535 308.598 163.79 309.327 163.194C310.055 162.598 310.881 162.111 311.798 161.734C312.718 161.358 313.673 161.076 314.662 160.888C315.652 160.7 316.625 160.574 317.573 160.512C318.52 160.449 319.374 160.418 320.131 160.418H321.267V159.805C321.267 158.833 321.141 158.007 320.894 157.331C320.646 156.656 320.305 156.116 319.866 155.705C319.427 155.297 318.918 155.004 318.336 154.834C317.75 154.663 317.126 154.576 316.454 154.576C315.345 154.576 314.359 154.75 313.502 155.095C312.641 155.44 311.961 155.771 311.467 156.084C310.62 156.523 309.964 156.335 309.497 155.52L309.149 154.862C308.682 153.921 308.842 153.214 309.63 152.744C310.299 152.336 311.24 151.897 312.453 151.423C313.662 150.953 315.115 150.716 316.806 150.716C319.576 150.716 321.72 151.511 323.236 153.095C324.752 154.68 325.512 156.997 325.512 160.041V173.56C325.512 174.595 325.031 175.114 324.069 175.114H322.975C322.013 175.114 321.532 174.595 321.532 173.56V171.537C321.532 171.348 321.546 171.192 321.577 171.066C321.605 170.941 321.636 170.816 321.664 170.69H321.577C321.138 171.631 320.584 172.463 319.915 173.188C319.329 173.815 318.587 174.39 317.684 174.909C316.778 175.428 315.673 175.685 314.359 175.685C313.397 175.685 312.463 175.529 311.561 175.215C310.658 174.902 309.86 174.438 309.177 173.825C308.49 173.212 307.943 172.477 307.535 171.61C307.127 170.746 306.922 169.75 306.922 168.618V168.611ZM311.209 168.234C311.209 169.175 311.55 170.049 312.237 170.847C312.923 171.648 313.951 172.049 315.321 172.049C316.255 172.049 317.092 171.822 317.837 171.366C318.58 170.91 319.207 170.314 319.719 169.575C320.228 168.837 320.622 168.022 320.901 167.127C321.176 166.231 321.316 165.347 321.316 164.465V163.431H320.179C319.392 163.431 318.489 163.469 317.468 163.549C316.447 163.629 315.471 163.824 314.537 164.138C313.603 164.451 312.815 164.932 312.174 165.573C311.533 166.217 311.212 167.102 311.212 168.234H311.209Z" fill="#74A51D"/>
<path d="M331.249 155.234H329.719C328.785 155.234 328.318 154.715 328.318 153.681V153.068C328.318 152.033 328.799 151.514 329.761 151.514H331.337V146.286C331.337 145.251 331.817 144.732 332.779 144.732H334.048C335.01 144.732 335.491 145.251 335.491 146.286V151.514H339.342C340.304 151.514 340.785 152.033 340.785 153.068V153.681C340.785 154.715 340.318 155.234 339.384 155.234H335.491V165.831C335.491 166.963 335.637 167.872 335.93 168.562C336.223 169.252 336.578 169.788 337.003 170.164C337.425 170.54 337.878 170.802 338.359 170.941C338.84 171.08 339.286 171.171 339.694 171.199C340.276 171.262 340.677 171.404 340.896 171.624C341.116 171.843 341.224 172.219 341.224 172.756V173.745C341.224 174.78 340.642 175.299 339.474 175.299C338.307 175.299 337.317 175.125 336.324 174.78C335.331 174.435 334.463 173.902 333.72 173.177C332.978 172.456 332.379 171.544 331.926 170.446C331.472 169.349 331.246 168.043 331.246 166.538V155.234H331.249Z" fill="#74A51D"/>
<path d="M345.685 146.519C344.723 146.519 344.242 146 344.242 144.965V143.412C344.242 142.377 344.723 141.858 345.685 141.858H347.173C348.135 141.858 348.616 142.377 348.616 143.412V144.965C348.616 146 348.135 146.519 347.173 146.519H345.685ZM344.284 152.831C344.284 151.796 344.765 151.277 345.727 151.277H347.083C348.045 151.277 348.525 151.796 348.525 152.831V173.557C348.525 174.591 348.045 175.11 347.083 175.11H345.727C344.765 175.11 344.284 174.591 344.284 173.557V152.831Z" fill="#74A51D"/>
<path d="M352.338 163.145C352.338 161.355 352.652 159.7 353.279 158.174C353.906 156.652 354.753 155.332 355.816 154.217C356.879 153.103 358.134 152.239 359.58 151.626C361.023 151.013 362.577 150.706 364.24 150.706C365.902 150.706 367.457 151.013 368.899 151.626C370.342 152.239 371.604 153.103 372.684 154.217C373.765 155.332 374.615 156.652 375.242 158.174C375.87 159.697 376.183 161.355 376.183 163.145C376.183 164.936 375.87 166.639 375.242 168.161C374.615 169.684 373.761 171.004 372.684 172.119C371.604 173.233 370.342 174.104 368.899 174.731C367.457 175.358 365.902 175.672 364.24 175.672C362.577 175.672 361.023 175.358 359.58 174.731C358.137 174.104 356.883 173.233 355.816 172.119C354.75 171.004 353.906 169.687 353.279 168.161C352.652 166.639 352.338 164.967 352.338 163.145ZM356.625 163.145C356.625 164.403 356.827 165.556 357.238 166.608C357.646 167.66 358.193 168.562 358.88 169.318C359.566 170.07 360.368 170.659 361.284 171.084C362.204 171.509 363.187 171.721 364.236 171.721C365.285 171.721 366.272 171.509 367.188 171.084C368.108 170.659 368.917 170.07 369.617 169.318C370.318 168.565 370.865 167.663 371.259 166.608C371.653 165.556 371.848 164.403 371.848 163.145C371.848 161.888 371.653 160.79 371.259 159.752C370.865 158.714 370.318 157.823 369.617 157.067C368.917 156.314 368.108 155.726 367.188 155.301C366.268 154.876 365.285 154.663 364.236 154.663C363.187 154.663 362.201 154.876 361.284 155.301C360.364 155.726 359.563 156.314 358.88 157.067C358.193 157.819 357.646 158.714 357.238 159.752C356.83 160.787 356.625 161.919 356.625 163.145Z" fill="#74A51D"/>
<path d="M379.988 152.831C379.988 151.796 380.469 151.277 381.431 151.277H382.658C383.62 151.277 384.101 151.796 384.101 152.831V154.949C384.101 155.262 384.073 155.576 384.014 155.889C383.986 156.015 383.968 156.157 383.968 156.314H384.055C384.258 155.813 384.589 155.231 385.038 154.572C385.491 153.914 386.066 153.301 386.767 152.737C387.467 152.172 388.283 151.692 389.217 151.302C390.151 150.908 391.228 150.713 392.455 150.713C395.079 150.713 396.996 151.476 398.209 152.998C399.418 154.52 400.024 156.805 400.024 159.85V173.557C400.024 174.592 399.544 175.111 398.582 175.111H397.226C396.264 175.111 395.783 174.592 395.783 173.557V160.888C395.783 160.041 395.731 159.254 395.63 158.533C395.529 157.812 395.33 157.185 395.041 156.649C394.748 156.116 394.326 155.691 393.772 155.377C393.218 155.064 392.503 154.907 391.629 154.907C390.548 154.907 389.559 155.133 388.652 155.59C387.746 156.046 386.969 156.666 386.31 157.45C385.655 158.234 385.143 159.171 384.78 160.254C384.414 161.337 384.233 162.49 384.233 163.716V173.561C384.233 174.595 383.752 175.114 382.79 175.114H381.435C380.473 175.114 379.992 174.595 379.992 173.561V152.834L379.988 152.831Z" fill="#74A51D"/>
<path d="M413.59 180.622C413.883 180.527 414.186 180.527 414.51 180.622C414.744 180.716 414.998 180.827 415.277 180.952C415.552 181.078 415.883 181.141 416.26 181.141C417.163 181.141 417.936 180.778 418.577 180.057C419.219 179.336 419.714 178.504 420.066 177.56L421.16 174.829L412.583 153.068C412.35 152.535 412.343 152.103 412.562 151.772C412.782 151.441 413.151 151.277 413.677 151.277H415.385C416.201 151.277 416.741 151.685 417.006 152.503L422.213 166.869C422.3 167.183 422.394 167.507 422.498 167.834C422.599 168.165 422.68 168.471 422.739 168.754C422.826 169.098 422.913 169.429 423 169.743H423.087L423.307 168.802C423.366 168.52 423.439 168.214 423.526 167.883C423.614 167.552 423.715 167.231 423.833 166.918L428.866 152.552C429.127 151.706 429.667 151.281 430.486 151.281H432.062C432.588 151.281 432.957 151.445 433.177 151.775C433.396 152.106 433.403 152.538 433.198 153.071L423.439 179.308C422.767 181.193 421.798 182.614 420.529 183.572C419.261 184.53 417.839 185.007 416.263 185.007C415.622 185.007 415.044 184.92 414.535 184.749C414.022 184.575 413.58 184.411 413.2 184.255C412.792 184.067 412.538 183.784 412.433 183.408C412.332 183.032 412.367 182.638 412.541 182.231L412.89 181.43C413.064 180.991 413.297 180.723 413.59 180.628V180.622Z" fill="#74A51D"/>
<path d="M434.504 163.145C434.504 161.355 434.818 159.7 435.445 158.174C436.072 156.652 436.919 155.332 437.982 154.217C439.045 153.103 440.3 152.239 441.746 151.626C443.189 151.013 444.743 150.706 446.406 150.706C448.068 150.706 449.623 151.013 451.065 151.626C452.508 152.239 453.77 153.103 454.85 154.217C455.931 155.332 456.781 156.652 457.408 158.174C458.036 159.697 458.349 161.355 458.349 163.145C458.349 164.936 458.036 166.639 457.408 168.161C456.781 169.684 455.927 171.004 454.85 172.119C453.77 173.233 452.508 174.104 451.065 174.731C449.623 175.358 448.068 175.672 446.406 175.672C444.743 175.672 443.189 175.358 441.746 174.731C440.303 174.104 439.049 173.233 437.982 172.119C436.916 171.004 436.072 169.687 435.445 168.161C434.818 166.639 434.504 164.967 434.504 163.145ZM438.791 163.145C438.791 164.403 438.993 165.556 439.404 166.608C439.812 167.66 440.359 168.562 441.046 169.318C441.732 170.07 442.534 170.659 443.45 171.084C444.37 171.509 445.353 171.721 446.402 171.721C447.451 171.721 448.438 171.509 449.354 171.084C450.274 170.659 451.083 170.07 451.783 169.318C452.484 168.565 453.031 167.663 453.425 166.608C453.819 165.556 454.014 164.403 454.014 163.145C454.014 161.888 453.819 160.79 453.425 159.752C453.031 158.714 452.484 157.823 451.783 157.067C451.083 156.314 450.274 155.726 449.354 155.301C448.434 154.876 447.451 154.663 446.402 154.663C445.353 154.663 444.367 154.876 443.45 155.301C442.53 155.726 441.729 156.314 441.046 157.067C440.359 157.819 439.812 158.714 439.404 159.752C438.996 160.787 438.791 161.919 438.791 163.145Z" fill="#74A51D"/>
<path d="M461.891 152.831C461.891 151.796 462.372 151.277 463.333 151.277H464.689C465.623 151.277 466.09 151.796 466.09 152.831V165.5C466.09 166.319 466.143 167.085 466.244 167.81C466.345 168.531 466.55 169.161 466.857 169.694C467.164 170.227 467.585 170.652 468.126 170.966C468.666 171.279 469.373 171.436 470.248 171.436C471.384 171.436 472.398 171.185 473.291 170.683C474.179 170.182 474.939 169.523 475.566 168.705C476.194 167.89 476.668 166.939 476.988 165.855C477.309 164.772 477.469 163.633 477.469 162.442V152.834C477.469 151.8 477.95 151.281 478.912 151.281H480.268C481.23 151.281 481.711 151.8 481.711 152.834V173.561C481.711 174.595 481.23 175.114 480.268 175.114H479.041C478.079 175.114 477.598 174.595 477.598 173.561V170.948C477.598 170.777 477.612 170.628 477.644 170.502C477.671 170.377 477.703 170.237 477.731 170.077H477.644C477.41 170.673 477.055 171.303 476.57 171.962C476.089 172.62 475.497 173.226 474.8 173.777C474.099 174.327 473.298 174.783 472.395 175.142C471.492 175.504 470.499 175.682 469.419 175.682C466.909 175.682 465.027 174.951 463.776 173.491C462.521 172.031 461.894 169.715 461.894 166.545V152.838L461.891 152.831Z" fill="#74A51D"/>
<path d="M497.025 143.412C497.025 142.377 497.506 141.858 498.468 141.858H499.824C500.785 141.858 501.266 142.377 501.266 143.412V168.046C501.266 168.704 501.326 169.241 501.441 169.648C501.556 170.056 501.716 170.37 501.922 170.589C502.124 170.808 502.343 170.958 502.577 171.035C502.81 171.115 503.044 171.167 503.277 171.199C503.598 171.261 503.866 171.394 504.086 171.599C504.305 171.805 504.413 172.125 504.413 172.564V173.696C504.413 174.198 504.305 174.591 504.086 174.874C503.866 175.156 503.479 175.299 502.925 175.299C502.34 175.299 501.699 175.229 501.002 175.086C500.304 174.943 499.66 174.647 499.078 174.191C498.496 173.735 498.004 173.069 497.61 172.188C497.217 171.31 497.021 170.115 497.021 168.607V143.408L497.025 143.412Z" fill="#74A51D"/>
<path d="M509.013 146.519C508.051 146.519 507.57 146 507.57 144.965V143.412C507.57 142.377 508.051 141.858 509.013 141.858H510.501C511.463 141.858 511.944 142.377 511.944 143.412V144.965C511.944 146 511.463 146.519 510.501 146.519H509.013ZM507.612 152.831C507.612 151.796 508.093 151.277 509.055 151.277H510.411C511.373 151.277 511.854 151.796 511.854 152.831V173.557C511.854 174.591 511.373 175.11 510.411 175.11H509.055C508.093 175.11 507.612 174.591 507.612 173.557V152.831Z" fill="#74A51D"/>
<path d="M517.152 143.412C517.152 142.377 517.633 141.858 518.595 141.858H519.95C520.885 141.858 521.352 142.377 521.352 143.412V159.993H524.544L529.925 152.266C530.305 151.608 530.873 151.277 531.633 151.277H533.253C533.835 151.277 534.215 151.458 534.39 151.82C534.564 152.183 534.477 152.629 534.128 153.162L528.001 161.779V161.874L535.09 173.226C535.411 173.759 535.477 174.208 535.285 174.567C535.093 174.929 534.71 175.107 534.125 175.107H532.375C531.615 175.107 531.047 174.745 530.667 174.024L524.631 163.943H521.348V173.55C521.348 174.584 520.881 175.104 519.947 175.104H518.591C517.629 175.104 517.148 174.584 517.148 173.55V143.405L517.152 143.412Z" fill="#74A51D"/>
<path d="M536.752 163.194C536.752 161.309 537.038 159.599 537.606 158.059C538.174 156.52 538.948 155.21 539.923 154.127C540.899 153.043 542.067 152.204 543.423 151.608C544.778 151.012 546.246 150.713 547.821 150.713C549.396 150.713 550.693 150.995 551.891 151.559C553.087 152.124 554.087 152.911 554.889 153.914C555.69 154.921 556.304 156.112 556.725 157.495C557.147 158.878 557.36 160.4 557.36 162.065C557.36 162.504 557.22 162.884 556.945 163.197C556.666 163.511 556.311 163.668 555.872 163.668H541.084C541.143 164.957 541.391 166.103 541.826 167.106C542.265 168.112 542.834 168.959 543.534 169.649C544.235 170.338 545.029 170.857 545.918 171.202C546.807 171.547 547.748 171.721 548.741 171.721C549.968 171.721 551.031 171.509 551.933 171.084C552.836 170.659 553.536 170.244 554.035 169.837C554.91 169.335 555.565 169.506 556.004 170.356L556.398 171.063C556.631 171.47 556.711 171.857 556.638 172.216C556.565 172.578 556.339 172.885 555.959 173.136C555.638 173.386 555.23 173.662 554.732 173.961C554.237 174.261 553.676 174.536 553.049 174.787C552.421 175.037 551.721 175.25 550.947 175.424C550.173 175.595 549.351 175.682 548.476 175.682C546.726 175.682 545.137 175.358 543.708 174.717C542.279 174.073 541.046 173.195 540.011 172.08C538.975 170.965 538.174 169.649 537.606 168.123C537.038 166.601 536.752 164.96 536.752 163.201V163.194ZM553.115 160.651C553.056 158.547 552.508 156.962 551.473 155.893C550.438 154.827 549.19 154.29 547.734 154.29C546.099 154.29 544.691 154.848 543.513 155.962C542.332 157.077 541.579 158.641 541.258 160.648H553.115V160.651Z" fill="#74A51D"/>
<path d="M561.359 175C560.811 175 560.341 174.804 559.948 174.411C559.556 174.019 559.359 173.548 559.359 173C559.359 172.452 559.556 171.981 559.948 171.589C560.341 171.196 560.811 171 561.359 171C561.908 171 562.378 171.196 562.77 171.589C563.163 171.981 563.359 172.452 563.359 173C563.359 173.363 563.267 173.696 563.082 174C562.904 174.304 562.663 174.548 562.359 174.733C562.063 174.911 561.73 175 561.359 175Z" fill="#74A51D"/>
</g>
<defs>
<clipPath id="clip0_468_11908">
<rect width="565" height="185" fill="white"/>
</clipPath>
</defs>
</svg>
